<?xml version="1.0" encoding="UTF-8" standalone="no"?>
<!-- Created with Inkscape (http://www.inkscape.org/) -->

<svg
   xmlns:dc="http://purl.org/dc/elements/1.1/"
   xmlns:cc="http://creativecommons.org/ns#"
   xmlns:rdf="http://www.w3.org/1999/02/22-rdf-syntax-ns#"
   xmlns:svg="http://www.w3.org/2000/svg"
   xmlns="http://www.w3.org/2000/svg"
   xmlns:xlink="http://www.w3.org/1999/xlink"
   xmlns:sodipodi="http://sodipodi.sourceforge.net/DTD/sodipodi-0.dtd"
   xmlns:inkscape="http://www.inkscape.org/namespaces/inkscape"
   version="1.0"
   width="24"
   height="24"
   id="svg3294"
   inkscape:version="0.48.0 r9654"
   sodipodi:docname="nextwall.svg">
  <metadata
     id="metadata15">
    <rdf:RDF>
      <cc:Work
         rdf:about="">
        <dc:format>image/svg+xml</dc:format>
        <dc:type
           rdf:resource="http://purl.org/dc/dcmitype/StillImage" />
      </cc:Work>
    </rdf:RDF>
  </metadata>
  <sodipodi:namedview
     pagecolor="#ffffff"
     bordercolor="#666666"
     borderopacity="1"
     objecttolerance="10"
     gridtolerance="10"
     guidetolerance="10"
     inkscape:pageopacity="0"
     inkscape:pageshadow="2"
     inkscape:window-width="1366"
     inkscape:window-height="715"
     id="namedview13"
     showgrid="false"
     inkscape:zoom="12.916667"
     inkscape:cx="14.091538"
     inkscape:cy="4.443998"
     inkscape:window-x="0"
     inkscape:window-y="25"
     inkscape:window-maximized="1"
     inkscape:current-layer="layer1" />
  <defs
     id="defs3296">
    <linearGradient
       id="linearGradient3774">
      <stop
         style="stop-color:#000000;stop-opacity:1;"
         offset="0"
         id="stop3776" />
      <stop
         style="stop-color:#363636;stop-opacity:1;"
         offset="1"
         id="stop3778" />
    </linearGradient>
    <linearGradient
       x1="-33.805603"
       y1="3"
       x2="-33.805603"
       y2="15.041595"
       id="linearGradient3274"
       xlink:href="#linearGradient3587-6-5"
       gradientUnits="userSpaceOnUse"
       gradientTransform="translate(45.805604,3)" />
    <linearGradient
       id="linearGradient3587-6-5">
      <stop
         id="stop3589-9-2"
         style="stop-color:#000000;stop-opacity:1;"
         offset="0" />
      <stop
         id="stop3591-7-4"
         style="stop-color:#363636;stop-opacity:1"
         offset="1" />
    </linearGradient>
    <linearGradient
       x1="-33.805603"
       y1="16"
       x2="-33.805603"
       y2="19"
       id="linearGradient3276"
       xlink:href="#linearGradient3587-6-5"
       gradientUnits="userSpaceOnUse"
       gradientTransform="translate(45.805604,1)" />
    <linearGradient
       inkscape:collect="always"
       xlink:href="#linearGradient3774"
       id="linearGradient3780"
       x1="12.267743"
       y1="9.7376823"
       x2="12.267743"
       y2="14.386851"
       gradientUnits="userSpaceOnUse" />
  </defs>
  <g
     id="layer1">
    <path
       d="M 5,5 C 4.446,5 4,5.4893865 4,6.09375 L 4,15.90625 C 4,16.510614 4.446,17 5,17 L 19,17 C 19.554,17 20,16.510614 20,15.90625 L 20,6.09375 C 20,5.4893863 19.554,5 19,5 L 5,5 z M 6,7 L 18,7 L 18,15 L 6,15 L 6,7 z M 9,18 L 15,18 L 15,19 L 17,19 L 17,21 L 7,21 L 7,19 L 9,19 L 9,18 z"
       id="path3287"
       style="opacity:0.6;fill:#ffffff;fill-opacity:1;fill-rule:nonzero;stroke:none;stroke-width:1;stroke-linecap:square;stroke-linejoin:miter;marker:none;marker-start:none;marker-mid:none;marker-end:none;stroke-miterlimit:4;stroke-dasharray:none;stroke-dashoffset:0;stroke-opacity:1;visibility:visible;display:inline;overflow:visible;enable-background:accumulate" />
    <path
       d="M 5,6 C 4.446,6 4,6.4893865 4,7.09375 l 0,9.8125 C 4,17.510614 4.446,18 5,18 l 14,0 c 0.554,0 1,-0.489386 1,-1.09375 l 0,-9.8125 C 20,6.4893863 19.554,6 19,6 L 5,6 z m 1,2 12,0 0,8 -12,0 0,-8 z"
       id="rect2722"
       style="opacity:0.69999999999999996;fill:url(#linearGradient3274);fill-opacity:1.0;fill-rule:nonzero;stroke:none;stroke-width:1;marker:none;visibility:visible;display:inline;overflow:visible;enable-background:accumulate"
       inkscape:connector-curvature="0" />
    <path
       style="opacity:0.7;fill:none;stroke:url(#linearGradient3780);stroke-width:1px;stroke-linecap:butt;stroke-linejoin:miter;stroke-opacity:1"
       d="M 8.2064516,10.761291 8.1290326,13.316129 12.541936,12.851613 12.07742,14.477418 16.180647,12 12.029083,9.5648142 12.41618,11.225807 z"
       id="path2996"
       inkscape:connector-curvature="0"
       sodipodi:nodetypes="cccccccc" />
  </g>
</svg>
